<svg xmlns="http://www.w3.org/2000/svg" xmlns:xlink="http://www.w3.org/1999/xlink" width="150.847" height="132.054" viewBox="0 0 150.847 132.054">
  <defs>
    <linearGradient id="linear-gradient" x1="0.5" x2="0.5" y2="1" gradientUnits="objectBoundingBox">
      <stop offset="0" stop-color="#fef8a0"/>
      <stop offset="0.376" stop-color="#e8d37a"/>
      <stop offset="0.721" stop-color="#d9bb61"/>
      <stop offset="1" stop-color="#c19a3f"/>
    </linearGradient>
  </defs>
  <g id="Group_42" data-name="Group 42" transform="translate(524 -204)">
    <g id="Group_38" data-name="Group 38" transform="translate(-524 204)">
      <g id="Group_1" data-name="Group 1" transform="translate(24.568 88.441)">
        <path id="Path_1" data-name="Path 1" d="M161,430.942v-.582h1.768v17.677H161v-.582h.582V430.939H161Zm3.535,17.094H163.35V430.36h1.185Zm8.256-17.677a5.3,5.3,0,0,1,5.3,5.3v7.071a5.161,5.161,0,0,1-.719,2.666,5.291,5.291,0,0,1-1.932,1.933,5.176,5.176,0,0,1-2.651.708h-7.677V430.364h7.677Zm4.117,12.374v-7.071a4.119,4.119,0,0,0-4.117-4.117H166.3v15.3h6.488a3.978,3.978,0,0,0,2.9-1.2A3.929,3.929,0,0,0,176.909,442.734Z" transform="translate(-161 -430.36)" fill="url(#linear-gradient)"/>
        <path id="Path_2" data-name="Path 2" d="M217.3,430.36h1.185v17.673H216.72v-.582h.582Zm1.768,0h1.185v17.677H219.07Zm1.768,0h8.838a4.132,4.132,0,1,1,0,8.263h-3.283l6.187,8.838h.582v.582h-2.6v-.582h.582l-6.187-8.838h-2.929v8.838h.582v.582h-1.768V430.36Zm1.185,1.189v5.885h7.653a2.943,2.943,0,1,0,0-5.885Z" transform="translate(-197.178 -430.36)" fill="url(#linear-gradient)"/>
        <path id="Path_3" data-name="Path 3" d="M270.056,472.77a1.126,1.126,0,0,1,1.136,1.126,1.11,1.11,0,0,1-.33.807,1.126,1.126,0,0,1-1.613,0,1.136,1.136,0,0,1-.33-.807,1.126,1.126,0,0,1,1.136-1.126Z" transform="translate(-231.07 -457.896)" fill="url(#linear-gradient)"/>
        <path id="Path_4" data-name="Path 4" d="M323.27,430.36h2.35v.582h-.582v11.591l-1.263-.884-1.845-1.287-1.845-1.287-4.594-3.234-4.623-3.234-1.161-.807v.733l14.141,9.9,1.185.807v1.438l-1.185-.807-1.869-1.312-1.059-.758-2.3-1.592-.354-.253-8.41-5.885-.151-.126-1.185-.807v-2.2h-.582v-.582h3.206v.582h-.607l1.01.708,6.464,4.521,1.845,1.287,1.845,1.287.908.656,1.238.859v-9.319h-.582v-.582Zm1.768,15.053v2.045h.582v.582h-2.35v-.582h.582v-1.441l-.253-.175-1.845-1.287-3.686-2.574-4.623-3.234-3.739-2.627v11.339h.582v.582h-2.35v-.582h.582V433.846l1.185.835,8.232,5.759,3.711,2.6.782.554,1.413.986Z" transform="translate(-256.405 -430.36)" fill="url(#linear-gradient)"/>
        <path id="Path_5" data-name="Path 5" d="M364.03,430.942v-.582H365.8v13.384a9.381,9.381,0,0,1-1.185-4.545v-8.256Zm3.535-.582v15.607a9.522,9.522,0,0,1-1.185-1.312V430.364h1.185Zm11.795,0h2.35v.582h-.582V439.2a9.11,9.11,0,0,1-1.112,4.433,8.57,8.57,0,0,1-3.006,3.22,7.81,7.81,0,0,1-8.863-.407V430.36h1.768v.582h-.582v14.874a6.5,6.5,0,0,0,3.535,1.035,6.572,6.572,0,0,0,5-2.234,7.677,7.677,0,0,0,2.069-5.415v-8.256h-.582v-.586Z" transform="translate(-292.822 -430.36)" fill="url(#linear-gradient)"/>
        <path id="Path_6" data-name="Path 6" d="M417.17,432.128V430.36h7.071v17.677h-1.768v-.582h.582V431.546h-5.3v.582Zm8.838,15.909h-1.186V430.36h1.186Zm.582-17.677h7.07v1.768h-.582v-.582h-5.3v15.909h.582v.582h-1.768V430.36Z" transform="translate(-327.325 -430.36)" fill="url(#linear-gradient)"/>
      </g>
      <g id="Group_2" data-name="Group 2" transform="translate(43.56 117.242)">
        <path id="Path_7" data-name="Path 7" d="M222.35,512.49v8.838h-.645v-4.205H215.8v4.205h-.645V512.49h.645v4.065h5.91V512.49Z" transform="translate(-215.15 -512.486)" fill="url(#linear-gradient)"/>
        <path id="Path_8" data-name="Path 8" d="M247.194,518.832h-5.128l-1.122,2.487h-.695l4.065-8.838h.645l4.065,8.838h-.694Zm-.239-.54-2.322-5.1-2.311,5.1Z" transform="translate(-231.447 -512.48)" fill="url(#linear-gradient)"/>
        <path id="Path_9" data-name="Path 9" d="M274.27,520.74v.582h-7.12v-.456l6.1-7.8h-6.022v-.582h6.906v.456l-6.085,7.8Z" transform="translate(-248.912 -512.48)" fill="url(#linear-gradient)"/>
        <path id="Path_10" data-name="Path 10" d="M299.2,520.746v.582h-6.1V512.49h5.91v.582h-5.264v3.486h4.71v.568h-4.71v3.623H299.2Z" transform="translate(-265.761 -512.486)" fill="url(#linear-gradient)"/>
        <path id="Path_11" data-name="Path 11" d="M317.18,512.49h.645v8.256h5.089v.582h-5.731V512.49Z" transform="translate(-281.396 -512.486)" fill="url(#linear-gradient)"/>
        <path id="Path_12" data-name="Path 12" d="M345.437,512.49v8.838h-.53l-6.022-7.677v7.677h-.645V512.49h.544l6.012,7.677V512.49Z" transform="translate(-295.069 -512.486)" fill="url(#linear-gradient)"/>
        <path id="Path_13" data-name="Path 13" d="M368.249,520.41a3.971,3.971,0,0,1-.929-2.841V512.48h.645v5.064a3.5,3.5,0,0,0,.743,2.438,3.278,3.278,0,0,0,4.307,0,3.484,3.484,0,0,0,.743-2.438V512.48h.645v5.089a3.956,3.956,0,0,1-.933,2.841,3.995,3.995,0,0,1-5.222,0Z" transform="translate(-313.95 -512.48)" fill="url(#linear-gradient)"/>
        <path id="Path_14" data-name="Path 14" d="M394.521,513.062H391.34v-.582h7.007v.582h-3.181v8.256h-.645Z" transform="translate(-329.546 -512.48)" fill="url(#linear-gradient)"/>
      </g>
      <path id="Path_15" data-name="Path 15" d="M175,225.666V192.3a12.8,12.8,0,0,1,12.8-12.8h66.287a12.8,12.8,0,0,1,12.8,12.8v33.364" transform="translate(-145.522 -179.042)" fill="none" stroke="#fef8a0" stroke-miterlimit="10" stroke-width="0.5"/>
      <line id="Line_1" data-name="Line 1" y1="28.745" transform="translate(29.478 53.877)" fill="none" stroke="#fef8a0" stroke-miterlimit="10" stroke-width="0.5"/>
      <line id="Line_2" data-name="Line 2" y1="28.745" transform="translate(121.368 53.877)" fill="none" stroke="#fef8a0" stroke-miterlimit="10" stroke-width="0.5"/>
      <path id="Path_16" data-name="Path 16" d="M266.89,497.26v7.1a12.8,12.8,0,0,1-12.8,12.8H187.8a12.8,12.8,0,0,1-12.8-12.8v-7.1" transform="translate(-145.522 -385.356)" fill="none" stroke="#fef8a0" stroke-miterlimit="10" stroke-width="0.5"/>
      <g id="Group_3" data-name="Group 3" transform="translate(14.047 46.624)">
        <line id="Line_3" data-name="Line 3" x2="30.895" fill="none" stroke="#fef8a0" stroke-miterlimit="10" stroke-width="0.5"/>
        <line id="Line_4" data-name="Line 4" x2="30.895" transform="translate(0 7.253)" fill="none" stroke="#fef8a0" stroke-miterlimit="10" stroke-width="0.5"/>
      </g>
      <g id="Group_4" data-name="Group 4" transform="translate(104.579 46.624)">
        <line id="Line_5" data-name="Line 5" x2="30.892" transform="translate(0)" fill="none" stroke="#fef8a0" stroke-miterlimit="10" stroke-width="0.5"/>
        <line id="Line_6" data-name="Line 6" x2="30.892" transform="translate(0 7.253)" fill="none" stroke="#fef8a0" stroke-miterlimit="10" stroke-width="0.5"/>
      </g>
      <line id="Line_7" data-name="Line 7" x2="150.847" transform="translate(0 82.622)" fill="none" stroke="#fef8a0" stroke-miterlimit="10" stroke-width="0.5"/>
      <line id="Line_8" data-name="Line 8" x2="121.424" transform="translate(14.047 111.904)" fill="none" stroke="#fef8a0" stroke-miterlimit="10" stroke-width="0.5"/>
      <g id="Group_6" data-name="Group 6" transform="translate(60.326 0.48)">
        <g id="Group_5" data-name="Group 5">
          <path id="Path_17" data-name="Path 17" d="M264.243,179.882a49.519,49.519,0,0,0-.561,7.52,4.418,4.418,0,0,0,.789,2.746c.645.8,1.662,1.059,2.42,1.7a2.494,2.494,0,0,1,.642,2.609,6.837,6.837,0,0,1-1.768,2.76c-1.41,1.557-2.988,3.388-2.8,5.65a5.72,5.72,0,0,0,1.27,2.869,8.009,8.009,0,0,1,1.638,2.8c.13.547.975.316.845-.231-.449-1.883-2.238-3.03-2.764-4.861-.645-2.248,1.15-4.184,2.525-5.71,1.277-1.417,2.6-3.346,1.831-5.342a3.913,3.913,0,0,0-1.982-1.925,4.447,4.447,0,0,1-1.073-.744,2.626,2.626,0,0,1-.638-1.438,17.679,17.679,0,0,1,.039-3.875q.137-2.157.424-4.3c.081-.554-.765-.793-.842-.235Z" transform="translate(-262.954 -179.564)" fill="url(#linear-gradient)"/>
        </g>
      </g>
      <g id="Group_8" data-name="Group 8" transform="translate(62.391)">
        <g id="Group_7" data-name="Group 7">
          <path id="Path_18" data-name="Path 18" d="M269.034,179.031c1.568,1.126,2.4,2.953,3.157,4.665a14.9,14.9,0,0,0,2.834,4.707,5.981,5.981,0,0,0,2.122,1.4,7.216,7.216,0,0,0,2.872.253,3.218,3.218,0,0,1,2.648.8,11.146,11.146,0,0,1,1.389,2.125,6.549,6.549,0,0,0,5.029,3.279c.561.056.558-.821,0-.877a5.735,5.735,0,0,1-4.395-3.058,11.016,11.016,0,0,0-1.364-2.048,3.466,3.466,0,0,0-2.273-1.087,26.563,26.563,0,0,1-3.083-.06,4.644,4.644,0,0,1-2.234-1.263,13.862,13.862,0,0,1-2.76-4.556,11.579,11.579,0,0,0-3.5-5.04c-.463-.333-.9.428-.445.754Z" transform="translate(-268.842 -178.195)" fill="url(#linear-gradient)"/>
        </g>
      </g>
      <g id="Group_10" data-name="Group 10" transform="translate(81.965 6.671)">
        <g id="Group_9" data-name="Group 9">
          <path id="Path_19" data-name="Path 19" d="M325.56,208.79a8.679,8.679,0,0,0,3.721-6.927,4.1,4.1,0,0,1,.421-2.108,3.024,3.024,0,0,1,1.8-1.042c1.5-.442,3.23-.971,4.763-.368a2.707,2.707,0,0,1,1.473,1.27,8.61,8.61,0,0,1,.417,2.241c.305,1.6,1.75,2.532,2.907,3.521,1.322,1.126,2.662,2.238,3.97,3.384a4.44,4.44,0,0,1,1.364,1.722c.267.73.263,1.526.512,2.262a10.327,10.327,0,0,0,2.269,3.174,5.417,5.417,0,0,1,1.087,1.848,8.667,8.667,0,0,1,.337,2.42c.084,3.016-.361,6.341-2.7,8.488-.919.842-2.644,1.873-3.907,1.235-1.147-.579-1.354-2.157-1.522-3.286a5.053,5.053,0,0,0-1.592-3.535c-1.1-.835-2.62-.915-3.406-2.16-.372-.589-.61-1.252-.926-1.873a10.054,10.054,0,0,0-1.189-1.8,9.8,9.8,0,0,0-3.22-2.557c-2.29-1.129-6.106-1.512-6.59-4.612a2.048,2.048,0,0,1,.372-1.606c.347-.438-.267-1.063-.621-.621a3.271,3.271,0,0,0-.232,3.556,5.783,5.783,0,0,0,3.16,2.694,26.682,26.682,0,0,1,4.472,1.922,9.079,9.079,0,0,1,3.023,3.342c.358.677.607,1.41,1.024,2.052a3.87,3.87,0,0,0,1.6,1.389,12.454,12.454,0,0,1,1.985.954,3.077,3.077,0,0,1,1.063,1.841c.333,1.364.3,2.827,1.094,4.047a3.005,3.005,0,0,0,3.763,1.031c2.957-1.056,4.58-4.058,5.033-7.007a17.383,17.383,0,0,0,.063-5.082,6,6,0,0,0-.793-2.28,12.363,12.363,0,0,0-1.357-1.69,8.155,8.155,0,0,1-1.266-1.691,10.757,10.757,0,0,1-.582-2.325c-.414-1.617-1.852-2.6-3.058-3.626-1.424-1.214-2.907-2.381-4.275-3.655a3.219,3.219,0,0,1-1.08-2.167,4.911,4.911,0,0,0-.6-2.252,4.283,4.283,0,0,0-3.746-1.7,11.318,11.318,0,0,0-2.666.477,7.476,7.476,0,0,0-2.122.789c-1.431.922-1.312,2.518-1.434,4.016a7.589,7.589,0,0,1-3.255,5.548c-.456.305-.018,1.063.449.744Z" transform="translate(-324.653 -197.214)" fill="url(#linear-gradient)"/>
        </g>
      </g>
      <g id="Group_12" data-name="Group 12" transform="translate(61.535 0.426)">
        <g id="Group_11" data-name="Group 11">
          <path id="Path_20" data-name="Path 20" d="M266.552,179.722a5.094,5.094,0,0,0,.34,3.406,4.721,4.721,0,0,0,1.045,1.441c.445.421.968.761,1.4,1.192a4.639,4.639,0,0,1,1.122,3.188,16.4,16.4,0,0,0,.361,3.49,12.466,12.466,0,0,0,1.627,3.118,8.843,8.843,0,0,1,.842,1.6,7.065,7.065,0,0,1,.33,1.813,3.557,3.557,0,0,0,1.522,2.8,10.239,10.239,0,0,1,2.634,1.866c.435.579.708,1.259,1.091,1.873a7.166,7.166,0,0,0,1.263,1.515,7.38,7.38,0,0,0,3.486,1.768c.551.112.786-.733.232-.845a6.522,6.522,0,0,1-3.051-1.5,11.193,11.193,0,0,1-1.989-2.834,5.891,5.891,0,0,0-2.367-2.076,5.99,5.99,0,0,1-1.21-.814,2.421,2.421,0,0,1-.7-1.526,14.931,14.931,0,0,0-.232-1.771,6.712,6.712,0,0,0-.614-1.508c-.54-1.007-1.256-1.911-1.733-2.953-.94-2.059-.214-4.44-1.094-6.509a4.269,4.269,0,0,0-1.1-1.512,15.306,15.306,0,0,1-1.484-1.294,4.163,4.163,0,0,1-.873-3.7.439.439,0,0,0-.845-.235Z" transform="translate(-266.402 -179.41)" fill="url(#linear-gradient)"/>
        </g>
      </g>
      <g id="Group_14" data-name="Group 14" transform="translate(78.33 27.255)">
        <g id="Group_13" data-name="Group 13">
          <path id="Path_21" data-name="Path 21" d="M314.623,258.5a4.033,4.033,0,0,1,2.49,3.672,28.536,28.536,0,0,1-.477,5.9q-.363,3.041-.729,6.078c-.119.989-.253,1.978-.351,2.971a8,8,0,0,0,.1,2.725c.386,1.55,1.634,2.6,2.294,4.009.684,1.462-.074,3.213.775,4.619.677,1.126,2.013,1.392,3.192,1.694a4.419,4.419,0,0,1,1.676.68c.547.431.687,1.178,1.249,1.6a4.675,4.675,0,0,0,2.466.452l3.048.2a24.4,24.4,0,0,0,2.946.172,1.639,1.639,0,0,0,1.55-1.2,8.387,8.387,0,0,0,.214-2.238c.032-.817.039-1.638-.007-2.459a10.867,10.867,0,0,0-1.122-4.549,9.538,9.538,0,0,0-1.4-1.866,2.456,2.456,0,0,1-.845-2.045,5.122,5.122,0,0,1,1.042-2,10.353,10.353,0,0,0,1.224-2c1.34-3.213-.284-6.671-2.406-9.1a43.96,43.96,0,0,0-3.763-3.644,47.8,47.8,0,0,0-3.963-3.279,20.357,20.357,0,0,0-4.416-2.49,3.291,3.291,0,0,0-2.174-.424A4.364,4.364,0,0,0,315.889,257c-.144.133-.715.768-.94.645-.495-.27-.94.488-.442.758.961.526,1.883-.708,2.518-1.256a1.62,1.62,0,0,1,.508-.347c.351-.116.9.172,1.235.295a16.513,16.513,0,0,1,2.276,1.052,41.3,41.3,0,0,1,7.881,6.257c2.378,2.22,4.819,4.963,4.612,8.449a5.2,5.2,0,0,1-.666,2.29c-.379.663-.87,1.252-1.287,1.89a3.243,3.243,0,0,0-.172,3.946c.456.614,1.031,1.126,1.452,1.771a7.432,7.432,0,0,1,.9,2.031,15.71,15.71,0,0,1,.424,4.7,9.96,9.96,0,0,1-.165,2.241.774.774,0,0,1-.666.666,7.463,7.463,0,0,1-1.452-.063c-1.957-.13-3.924-.214-5.878-.386a1.092,1.092,0,0,1-.919-.463,10.654,10.654,0,0,0-.593-.926,3.37,3.37,0,0,0-1.456-.947c-1.059-.4-2.483-.4-3.328-1.231a2.754,2.754,0,0,1-.589-2.076,7.15,7.15,0,0,0-.217-2.3c-.466-1.406-1.638-2.4-2.227-3.735-.74-1.676-.214-3.756,0-5.5q.352-2.951.708-5.9a55.546,55.546,0,0,0,.6-5.7,6.237,6.237,0,0,0-1.417-4.4,3.921,3.921,0,0,0-1.75-1.1c-.526-.175-.758.67-.221.835Z" transform="translate(-314.289 -255.904)" fill="url(#linear-gradient)"/>
        </g>
      </g>
      <g id="Group_16" data-name="Group 16" transform="translate(53.694 28.932)">
        <g id="Group_15" data-name="Group 15">
          <path id="Path_22" data-name="Path 22" d="M254.432,261.59c3.311.288,4.928,3.714,5.559,6.555.175.8.309,1.61.435,2.42a4.866,4.866,0,0,0,.737,2.185c.859,1.164,2.308,1.564,3.4,2.438a6.977,6.977,0,0,1,2.315,3.521,7.175,7.175,0,0,1-.193,4.3c-.929,2.771-2.872,5.275-2.711,8.323.042.821.074,1.5-.687,1.985a11.68,11.68,0,0,1-2.308.989,31.193,31.193,0,0,1-5.285,1.5c-2.9.509-6.6.039-8.053-2.925a5.808,5.808,0,0,1,.007-4.328c.466-1.487,1.15-2.9,1.5-4.43.305-1.343.417-2.953-.849-3.84a17.424,17.424,0,0,1-1.8-1.084,4.44,4.44,0,0,1-1.1-1.54c-1.235-2.813.119-5.776,1.947-7.961,2.076-2.483,4.8-4.412,6.513-7.2a3.55,3.55,0,0,0,.3-.512s.084-.217.032-.123c-.028.046-.014,0,.018-.032a3.045,3.045,0,0,1,.445-.309c.463-.319.025-1.08-.442-.758-.147.1-.3.2-.445.309a2.55,2.55,0,0,0-.586.852,13.9,13.9,0,0,1-1.515,2.045c-1.143,1.3-2.445,2.455-3.655,3.693-2.174,2.231-4.265,5.04-3.925,8.333a6,6,0,0,0,1.62,3.662,6.847,6.847,0,0,0,1.743,1.136,1.868,1.868,0,0,1,1.021,1.989c-.179,3.206-2.683,5.98-2.02,9.291.635,3.16,3.97,4.763,6.93,4.8a18.615,18.615,0,0,0,5.583-.982c.944-.284,1.88-.6,2.8-.954a8.946,8.946,0,0,0,2.171-1.014,2.314,2.314,0,0,0,.947-2,10.146,10.146,0,0,1,.1-2.329,21.566,21.566,0,0,1,1.74-4.377,11.8,11.8,0,0,0,1.287-4.44,7.75,7.75,0,0,0-1.171-4.324,8.693,8.693,0,0,0-3.332-2.971,4.458,4.458,0,0,1-1.729-1.4,6.9,6.9,0,0,1-.628-2.525c-.526-3.164-1.543-6.727-4.651-8.281a5.668,5.668,0,0,0-2.066-.579C253.871,260.664,253.875,261.54,254.432,261.59Z" transform="translate(-244.046 -260.687)" fill="url(#linear-gradient)"/>
        </g>
      </g>
      <g id="Group_18" data-name="Group 18" transform="translate(86.527 8.676)">
        <g id="Group_17" data-name="Group 17">
          <path id="Path_23" data-name="Path 23" d="M337.667,203.209c.565,2.406,3.107,3.262,4.935,4.493,1.855,1.249,2.662,3.262,3.539,5.226a8.744,8.744,0,0,0,3.7,4.566,15.3,15.3,0,0,1,3.027,1.691,6.566,6.566,0,0,1,1.683,2.922,10.955,10.955,0,0,0,1.466,3.216,5.127,5.127,0,0,0,3.065,1.876c.277.056.393-.368.116-.424a4.723,4.723,0,0,1-2.96-1.887,11.617,11.617,0,0,1-1.266-2.9,8.051,8.051,0,0,0-1.375-2.7,7.667,7.667,0,0,0-2.613-1.726,7.924,7.924,0,0,1-2.708-1.838,10.285,10.285,0,0,1-1.5-2.473c-.814-1.743-1.455-3.658-2.844-5.047-1.789-1.789-5.191-2.357-5.84-5.121-.063-.27-.488-.154-.421.123Z" transform="translate(-337.66 -202.933)" fill="url(#linear-gradient)"/>
        </g>
      </g>
      <g id="Group_20" data-name="Group 20" transform="translate(85.509 14.251)">
        <g id="Group_19" data-name="Group 19">
          <path id="Path_24" data-name="Path 24" d="M334.869,219.232a8.533,8.533,0,0,1,4.577,4.886,10.624,10.624,0,0,0,1.245,2.862,7.037,7.037,0,0,0,2.715,1.75c1.845.965,2.953,2.823,4.465,4.184a7.788,7.788,0,0,0,1.1.842c.505.312,1.084.466,1.592.765,1.031.6,1.259,1.89,1.4,2.978a5.121,5.121,0,0,0,1.256,3.339,3.419,3.419,0,0,0,2.964.831c.277-.053.158-.477-.116-.424a2.943,2.943,0,0,1-2.946-1.185c-.674-.982-.628-2.245-.838-3.374a3.644,3.644,0,0,0-1.371-2.469c-.431-.284-.947-.417-1.4-.659a6.759,6.759,0,0,1-1.333-.957c-1.448-1.308-2.522-3.037-4.219-4.065-.954-.575-2.122-.824-2.848-1.722a10.814,10.814,0,0,1-1.34-3.069,8.906,8.906,0,0,0-4.686-4.9c-.256-.105-.477.274-.221.386Z" transform="translate(-334.756 -218.828)" fill="url(#linear-gradient)"/>
        </g>
      </g>
      <g id="Group_22" data-name="Group 22" transform="translate(87.35 31.1)">
        <g id="Group_21" data-name="Group 21">
          <path id="Path_25" data-name="Path 25" d="M341.169,266.985a13.2,13.2,0,0,0-1.119,3.507,5.137,5.137,0,0,0,.68,3.3,31.533,31.533,0,0,0,2.1,2.774,13.284,13.284,0,0,1,1.743,3.03,8.535,8.535,0,0,1,.614,3.549,21.825,21.825,0,0,1-.628,3.676c-.477,2.164-.8,4.317.133,6.408.94,2.115,2.83,3.942,2.9,6.369a.219.219,0,0,0,.438,0c-.056-2.02-1.312-3.651-2.294-5.324a8.223,8.223,0,0,1-1.168-3,10.618,10.618,0,0,1,.256-3.595c.456-2.227,1.112-4.447.621-6.73a14.011,14.011,0,0,0-3.181-5.794,6.644,6.644,0,0,1-1.817-3.563,9.51,9.51,0,0,1,1.094-4.391c.112-.26-.267-.481-.375-.221Z" transform="translate(-340.007 -266.869)" fill="url(#linear-gradient)"/>
        </g>
      </g>
      <g id="Group_24" data-name="Group 24" transform="translate(82.983 28.235)">
        <g id="Group_23" data-name="Group 23">
          <path id="Path_26" data-name="Path 26" d="M328.216,258.808c-1.045,1.919-.7,4.167-.014,6.145.389,1.126.88,2.213,1.263,3.339a14.227,14.227,0,0,1,.744,3.683,14.946,14.946,0,0,1-.263,3.749,15.417,15.417,0,0,0-.445,3.416c.088,2.283,1.743,3.819,2.63,5.8a3.693,3.693,0,0,1,.028,3.556c-.526.821-1.375,1.512-1.336,2.571.01.281.449.284.438,0-.039-.971.835-1.641,1.308-2.4a3.568,3.568,0,0,0,.372-2.672c-.456-2.125-2.234-3.616-2.823-5.678a7.882,7.882,0,0,1,.091-3.672,20.38,20.38,0,0,0,.459-3.444,17.149,17.149,0,0,0-1.445-6.769c-.912-2.3-1.925-5.029-.635-7.4.14-.246-.238-.466-.372-.217Z" transform="translate(-327.554 -258.698)" fill="url(#linear-gradient)"/>
        </g>
      </g>
      <g id="Group_26" data-name="Group 26" transform="translate(64.879 32.167)">
        <g id="Group_25" data-name="Group 25">
          <path id="Path_27" data-name="Path 27" d="M279.241,270.068c-.207,1.312-.9,2.462-1.228,3.742a6.1,6.1,0,0,0,.01,2.922c.477,2.017,1.666,3.774,2.5,5.65a8.748,8.748,0,0,1,.831,3.023,9.441,9.441,0,0,1-.87,3.84,21.329,21.329,0,0,0-1.2,4.033,9.346,9.346,0,0,0-.126,2c.035.694.238,1.375.249,2.069.028,2.227-3.044,2.62-3.465,4.686-.056.277.368.393.424.116.358-1.764,2.644-2.2,3.3-3.819a3.045,3.045,0,0,0,.119-1.6,12.56,12.56,0,0,1-.2-2.111,13.953,13.953,0,0,1,.947-4.261,19.253,19.253,0,0,0,1.213-3.851,6.919,6.919,0,0,0-.326-3.013c-.642-2-1.866-3.753-2.609-5.713a6.617,6.617,0,0,1-.48-3.36c.228-1.477,1.1-2.764,1.333-4.244.042-.274-.382-.393-.424-.116Z" transform="translate(-275.935 -269.91)" fill="url(#linear-gradient)"/>
        </g>
      </g>
      <g id="Group_28" data-name="Group 28" transform="translate(58.212 31.5)">
        <g id="Group_27" data-name="Group 27">
          <path id="Path_28" data-name="Path 28" d="M260.992,268.1a6.575,6.575,0,0,0-.642,5.9c.719,2.409,2.171,4.6,2.438,7.148a7.252,7.252,0,0,1-.677,3.683,11.953,11.953,0,0,0-1.2,6.671,24.093,24.093,0,0,1,.253,3.328,2.9,2.9,0,0,1-.687,1.8,5.633,5.633,0,0,1-1.491,1.031,3.563,3.563,0,0,0-2.059,2.2c-.056.277.368.393.424.116.221-1.115,1.315-1.627,2.209-2.139a3.69,3.69,0,0,0,1.873-2.031,6.985,6.985,0,0,0,.06-2.929,19.724,19.724,0,0,1-.165-3.609,11.025,11.025,0,0,1,.915-3.662,10.743,10.743,0,0,0,.979-3.023c.277-2.494-.94-4.8-1.848-7.032-.926-2.276-1.648-5.093-.007-7.235.172-.217-.21-.438-.379-.217Z" transform="translate(-256.926 -268.009)" fill="url(#linear-gradient)"/>
        </g>
      </g>
    </g>
  </g>
</svg>
